<svg width="40" height="40" viewBox="0 0 40 40" fill="none" xmlns="http://www.w3.org/2000/svg">
<path d="M2.86563 32V16.352H8.46563V32H2.86563ZM5.64963 14.528C4.81763 14.528 4.12429 14.2507 3.56963 13.696C3.01496 13.12 2.73763 12.4053 2.73763 11.552C2.73763 10.72 3.01496 10.016 3.56963 9.44C4.12429 8.864 4.81763 8.576 5.64963 8.576C6.52429 8.576 7.22829 8.864 7.76163 9.44C8.31629 10.016 8.59363 10.72 8.59363 11.552C8.59363 12.4053 8.31629 13.12 7.76163 13.696C7.22829 14.2507 6.52429 14.528 5.64963 14.528ZM21.0221 32.32C20.0195 32.32 19.0915 32.128 18.2381 31.744C17.3848 31.3387 16.6808 30.7947 16.1261 30.112C15.5715 29.4293 15.2301 28.6827 15.1021 27.872V20.224C15.2301 19.4133 15.5715 18.688 16.1261 18.048C16.7021 17.408 17.4168 16.9173 18.2701 16.576C19.1235 16.2133 20.0408 16.032 21.0221 16.032C22.5368 16.032 23.8701 16.384 25.0221 17.088C26.1741 17.7707 27.0701 18.7307 27.7101 19.968C28.3715 21.2053 28.7021 22.6133 28.7021 24.192C28.7021 25.7493 28.3715 27.1467 27.7101 28.384C27.0701 29.6 26.1741 30.56 25.0221 31.264C23.8701 31.968 22.5368 32.32 21.0221 32.32ZM11.7101 32V8.672H17.2781V20.192L16.3501 23.968L17.1501 27.808V32H11.7101ZM20.0301 27.36C20.6275 27.36 21.1501 27.2213 21.5981 26.944C22.0675 26.6667 22.4301 26.2933 22.6861 25.824C22.9421 25.3333 23.0701 24.7787 23.0701 24.16C23.0701 23.5627 22.9421 23.0293 22.6861 22.56C22.4301 22.0693 22.0675 21.6853 21.5981 21.408C21.1288 21.1307 20.5955 20.992 19.9981 20.992C19.4008 20.992 18.8675 21.1307 18.3981 21.408C17.9501 21.6853 17.5981 22.0587 17.3421 22.528C17.0861 22.9973 16.9581 23.5413 16.9581 24.16C16.9581 24.8 17.0861 25.3653 17.3421 25.856C17.5981 26.3253 17.9608 26.6987 18.4301 26.976C18.8995 27.232 19.4328 27.36 20.0301 27.36ZM33.9116 32.352C32.973 32.352 32.205 32.0427 31.6076 31.424C31.0103 30.8053 30.7116 30.0373 30.7116 29.12C30.7116 28.2027 31.0103 27.4347 31.6076 26.816C32.205 26.1973 32.973 25.888 33.9116 25.888C34.829 25.888 35.5863 26.1973 36.1836 26.816C36.781 27.4347 37.0796 28.2027 37.0796 29.12C37.0796 30.0373 36.781 30.8053 36.1836 31.424C35.5863 32.0427 34.829 32.352 33.9116 32.352Z" fill="#181818"/>
</svg>
